PathFileType	4	(X/Y/Z)	Run_500 04
DataRate	CameraRate	NumFrames	NumMarkers	Units	OrigDataRate	OrigDataStartFrame	OrigNumFrames
100	100	4	41	mm	100	148	125
Frame#	Time	RASI			RPSI			RTH1			RTH2			RTH3			LTH1			LTH2			LTH3			RTB1			RTB2			RTB3			LTB1			LTB2			LTB3			RCAL			RTOE			RMT5			LCAL			LTOE			LACR			RACR			CLAV			C7			RUA1			RUA2			RUA3			RLEL			RMEL			LUA1			LUA2			LUA3			LLEL			LMEL			RFAsuperior			RFAradius			RFAulna			LFAsuperior			LFAradius			LFAulna			LPSI			LASI			
		X1	Y1	Z1	X2	Y2	Z2	X3	Y3	Z3	X4	Y4	Z4	X5	Y5	Z5	X6	Y6	Z6	X7	Y7	Z7	X8	Y8	Z8	X9	Y9	Z9	X10	Y10	Z10	X11	Y11	Z11	X12	Y12	Z12	X13	Y13	Z13	X14	Y14	Z14	X15	Y15	Z15	X16	Y16	Z16	X17	Y17	Z17	X18	Y18	Z18	X19	Y19	Z19	X20	Y20	Z20	X21	Y21	Z21	X22	Y22	Z22	X23	Y23	Z23	X24	Y24	Z24	X25	Y25	Z25	X26	Y26	Z26	X27	Y27	Z27	X28	Y28	Z28	X29	Y29	Z29	X30	Y30	Z30	X31	Y31	Z31	X32	Y32	Z32	X33	Y33	Z33	X34	Y34	Z34	X35	Y35	Z35	X36	Y36	Z36	X37	Y37	Z37	X38	Y38	Z38	X39	Y39	Z39	X40	Y40	Z40	X41	Y41	Z41	

141	1.66	1126.563239	952.888886	-294.333827	968.142594	1014.717313	-393.879201	1068.958432	782.556115	-243.150204	1100.217878	682.4170370000001	-253.659961	1034.061796	547.192455	-287.733439	1089.864947	793.527346	-608.385708	1217.750011	714.51435	-585.982413	1210.692293	586.043381	-583.9291019999999	997.521535	294.96834	-381.203674	899.1366400000001	231.937162	-345.767383	873.730669	177.083403	-419.227268	1122.657514	411.212028	-501.24102	1057.644379	430.735178	-545.8307119999999	983.346684	397.079188	-494.101108	706.6682970000001	139.997944	-422.881047	931.191247	67.084677	-435.814139	919.974099	48.64085	-356.446327	820.540128	478.170391	-480.783755	878.7151249999999	247.869173	-494.272619	1158.806713	1478.034854	-576.607789	1188.118449	1439.06568	-237.067208	1219.796962	1389.162193	-384.908863	1118.422224	1494.944473	-400.897769	1142.778643	1303.086934	-159.951966	1072.319319	1289.946619	-151.879793	1091.969819	1223.721257	-135.411487	1067.789828	1151.585839	-109.515311	1030.47466	1135.164753	-194.00648	1058.40034	1413.410036	-654.6537510000001	972.358059	1396.112158	-626.363409	969.036664	1332.339844	-690.717709	921.647658	1285.576832	-717.01566	886.123165	1271.822632	-633.569463	1155.161558	1161.572089	-133.129224	1292.239968	1178.402709	-224.510794	1298.232561	1113.379311	-194.072508	976.191641	1213.210021	-715.9501760000001	1100.821546	1110.55726	-649.083036	1054.39389	1060.37206	-674.29245	976.3934420000001	1008.609132	-486.88644	1146.401117	941.06544	-548.022385	
142	1.67	1129.668795	953.604967	-293.674342	971.659251	1019.666945	-391.979608	1062.765378	784.339668	-244.143989	1085.527069	681.409097	-255.350831	1007.465051	550.59157	-287.904573	1096.080311	804.633902	-609.8624139999999	1226.455292	733.171103	-584.144107	1227.449965	604.439125	-582.168371	957.334189	298.551686	-379.435979	856.91679	238.898172	-344.914842	829.871471	183.36973	-417.776036	1153.879924	416.621286	-501.557596	1085.977223	430.601793	-544.440152	1016.618628	386.518678	-493.413286	663.46548	153.957808	-420.754104	881.912355	66.17310999999999	-436.732708	869.208381	48.86882	-357.276376	844.150274	447.075668	-477.172543	933.136587	226.946243	-496.474454	1154.109445	1484.918299	-577.142963	1191.749389	1448.158249	-240.745256	1220.664828	1396.9736	-388.361392	1118.460364	1501.529007	-401.6921	1152.335783	1311.307866	-162.567992	1082.216298	1296.950491	-152.133175	1104.018878	1231.593902	-135.865324	1082.992208	1157.929887	-109.968666	1042.876394	1141.116291	-193.478038	1049.701638	1428.06074	-652.290702	965.230723	1413.199855	-622.447415	955.927445	1350.324281	-687.204218	905.656983	1306.19248	-711.843377	871.818191	1293.169382	-627.840792	1168.679331	1174.62373	-137.469459	1298.950923	1203.018777	-234.88311	1311.659765	1138.885341	-205.412691	958.646586	1234.36044	-712.939339	1083.003192	1128.684818	-650.033547	1035.509707	1079.449166	-674.15316	979.206235	1014.934196	-484.928001	1148.865979	947.410456	-547.500979	
143	1.68	1133.647862	955.420085	-293.224986	975.6688779999999	1024.876952	-389.96513	1058.339095	787.093669	-245.329954	1073.47984	682.7908200000001	-257.603426	983.310085	556.962045	-287.046276	1102.408635	816.7180049999999	-611.394976	1234.024055	751.634008	-582.171247	1241.558385	622.7917660000001	-580.244787	918.49159	305.420634	-376.976748	816.498497	248.949192	-343.100339	788.010308	191.706775	-414.400696	1183.308198	421.768188	-500.367455	1113.560817	429.128713	-542.879719	1050.35062	375.56617	-492.237839	623.672742	170.542294	-417.952551	833.157513	65.60805499999999	-437.152665	818.756859	49.090668	-357.668583	870.9934510000001	414.381594	-474.298016	989.427307	208.405997	-496.096974	1150.485138	1492.199774	-577.792854	1194.680572	1458.108298	-244.720326	1221.697253	1405.646611	-391.951915	1117.940972	1508.226827	-403.030275	1161.351387	1320.856267	-165.042822	1091.954911	1305.088266	-152.179577	1116.412191	1240.586504	-136.190015	1098.229431	1165.888531	-109.970076	1053.354164	1148.594946	-191.504092	1043.254424	1442.928993	-650.19883	960.149521	1430.818545	-617.637651	944.468111	1369.613981	-682.583267	891.392439	1327.669552	-705.3000060000001	860.675423	1315.151583	-620.064045	1181.166024	1188.937996	-141.36013	1303.471294	1227.420584	-244.892662	1322.397289	1164.651417	-216.504629	942.692968	1255.674977	-708.844649	1067.345012	1147.173035	-650.277392	1018.439965	1099.064077	-672.995737	983.006638	1021.909769	-482.955184	1152.461992	954.786914	-546.605758	
144	1.69	1138.108804	958.25263	-292.875969	979.877466	1030.024379	-387.846923	1055.631631	790.0830089999999	-246.908763	1063.586618	685.866412	-260.067845	961.79014	565.554977	-285.504021	1108.701663	829.018686	-612.756542	1240.579989	769.448936	-580.389933	1253.286269	640.553089	-578.4730039999999	881.677322	315.477077	-373.935803	778.3986619999999	261.758686	-340.336894	749.3906490000001	202.171926	-410.116975	1211.281372	426.142789	-498.209852	1140.846179	425.894909	-541.204414	1084.738818	364.409936	-490.467551	587.900089	189.190191	-414.622566	785.571815	65.673197	-436.633516	769.506341	49.304326	-357.301716	901.467193	380.920693	-472.282693	1046.711342	192.468265	-493.03636	1147.54042	1499.641776	-578.533959	1197.20256	1468.725692	-248.967177	1222.628135	1414.597102	-395.640337	1117.00628	1514.972083	-404.67469	1169.790739	1331.620107	-167.302293	1101.792221	1314.270151	-151.338139	1128.84222	1250.481842	-136.373416	1113.047987	1175.229285	-109.495818	1063.352194	1157.123733	-188.707085	1038.592344	1457.435487	-648.5523889999999	957.097934	1448.15032	-611.851232	935.059307	1389.576059	-676.9093810000001	878.955992	1349.558103	-697.3900619999999	852.636529	1337.229632	-610.4519790000001	1192.343456	1204.132941	-144.454258	1306.097898	1250.78635	-254.377202	1330.65309	1189.588772	-227.082027	928.284366	1276.616578	-703.70421	1053.9146	1165.506912	-649.931423	1003.341551	1118.723639	-670.8998340000001	986.951251	1029.261369	-480.718724	1156.43397	963.145682	-544.816316	
